<svg xmlns="http://www.w3.org/2000/svg" viewBox="0 0 6.82666 6.82666">
  <path
    fill="#F45A52"
    d="M4.25152 3.39526c-0.708059,0.0535591 -0.952142,-0.406429 -1.0347,-0.68461 -0.334106,0.416925 -0.871669,0.301248 -0.911874,0.291906 -0.0397913,-0.00807874 -0.067752,-0.0451811 -0.0635827,-0.0864331l0.000244094 2.3622e-005c0.039374,-0.389181 0.155744,-0.565689 0.291205,-0.666791 -0.0450709,-0.00572835 -0.0866299,-0.0144094 -0.12489,-0.025311 -0.227563,0.112764 -0.414866,0.26948 -0.54374,0.468087 -0.124906,0.192484 -0.195598,0.425921 -0.195598,0.698689 0,0.503067 0.236756,1.18123 0.611339,1.69494 0.306547,0.420409 0.703705,0.727567 1.13341,0.727567 0.429709,0 0.826866,-0.307157 1.13341,-0.727567 0.374583,-0.513713 0.611339,-1.19188 0.611339,-1.69494 0,-0.220535 -0.0462835,-0.41535 -0.130114,-0.583587 -0.0802047,-0.160953 -0.195004,-0.298323 -0.336709,-0.411248 -0.153071,0.0959685 -0.337138,0.0992205 -0.493917,0.0734843 0.275165,0.3545 0.174681,0.730961 0.134646,0.844193 -0.00476772,0.0134882 -0.0113189,0.0330394 -0.0190866,0.0451299 -0.0130984,0.020378 -0.0352677,0.0345827 -0.0612874,0.0365512l-9.84252e-005 -8.26772e-005z"
  />

  <g fill="#111">
    <path
      d="M4.74476 2.23589c0.181024,0.1335 0.326925,0.300602 0.426335,0.500091 0.0947047,0.190055 0.146988,0.408736 0.146988,0.654839 0,0.532953 -0.248862,1.24872 -0.642591,1.78869 -0.334461,0.458693 -0.775122,0.793819 -1.26216,0.793819 -0.487039,0 -0.927701,-0.335126 -1.26216,-0.793819 -0.393728,-0.539972 -0.642591,-1.25574 -0.642591,-1.78869 0,-0.304642 0.0801811,-0.567244 0.22185,-0.785563 0.150764,-0.232339 0.370453,-0.412732 0.636551,-0.538776l-7.87402e-005 -0.000161417c0.0216378,-0.010248 0.0455591,-0.00992913 0.0659409,-0.00114173 0.0518268,0.0165354 0.112705,0.0280472 0.184075,0.0314055 0.0760118,0.00357874 0.163559,-0.00225197 0.264248,-0.0212402l-3.54331e-005 -0.00019685c0.0434173,-0.00818898 0.0852559,0.0203661 0.0934449,0.0637835 0.00700787,0.0371457 -0.0128858,0.0731299 -0.0459685,0.0878819 -0.0383976,0.0209094 -0.0769291,0.0374055 -0.116366,0.0542874 -0.162047,0.0693622 -0.342028,0.146484 -0.402988,0.577114 0.162642,0.0198307 0.568571,0.0227756 0.774732,-0.39222l-8.26772e-005 -0.000279528c0.0196535,-0.0395669 0.0676693,-0.0557087 0.107236,-0.0360551 0.0268504,0.0133386 0.0429055,0.0397362 0.044315,0.0676929 0.00435827,0.048815 0.0815315,0.769059 0.85348,0.741252 0.0434685,-0.136402 0.127409,-0.557323 -0.347492,-0.882685l-0.000216535 5.90551e-005c-0.0364449,-0.0249685 -0.045748,-0.0747677 -0.0207795,-0.111213 0.0240591,-0.0351142 0.0711654,-0.0450236 0.107169,-0.0233701 0.0552402,0.0261339 0.471244,0.212366 0.714929,0.0136811l-0.00015748 -0.000192913c0.0303976,-0.0247992 0.0735354,-0.0235472 0.102374,0.00100787zm0.283209 0.571343c-0.0802047,-0.160953 -0.195004,-0.298323 -0.336709,-0.411248 -0.153071,0.0959685 -0.337138,0.0992205 -0.493917,0.0734843 0.275165,0.3545 0.174681,0.730961 0.134646,0.844193 -0.00476772,0.0134882 -0.0113189,0.0330394 -0.0190866,0.0451299 -0.0130984,0.020378 -0.0352677,0.0345827 -0.0612874,0.0365512l-9.84252e-005 -8.26772e-005c-0.708059,0.0535591 -0.952142,-0.406429 -1.0347,-0.68461 -0.334106,0.416925 -0.871669,0.301248 -0.911874,0.291906 -0.0397913,-0.00807874 -0.067752,-0.0451811 -0.0635827,-0.0864331l0.000244094 2.3622e-005c0.039374,-0.389181 0.155744,-0.565689 0.291205,-0.666791 -0.0450709,-0.00572835 -0.0866299,-0.0144094 -0.12489,-0.025311 -0.227563,0.112764 -0.414866,0.26948 -0.54374,0.468087 -0.124906,0.192484 -0.195598,0.425921 -0.195598,0.698689 0,0.503067 0.236756,1.18123 0.611339,1.69494 0.306547,0.420409 0.703705,0.727567 1.13341,0.727567 0.429709,0 0.826866,-0.307157 1.13341,-0.727567 0.374583,-0.513713 0.611339,-1.19188 0.611339,-1.69494 0,-0.220535 -0.0462835,-0.41535 -0.130114,-0.583587z"
    />

    <path
      d="M2.92861 2.22681c-0.0383976,0.0209094 -0.0769291,0.0374055 -0.116366,0.0542874 -0.162047,0.0693622 -0.342028,0.146484 -0.402988,0.577114 0.162642,0.0198268 0.568571,0.0227756 0.774728,-0.39222l-8.26772e-005 -0.000279528c0.0196535,-0.0395669 0.0676693,-0.0557087 0.107236,-0.0360551 0.0268504,0.0133386 0.0429055,0.0397362 0.044315,0.0676929 0.00435827,0.048815 0.0815354,0.769059 0.853484,0.741252 0.0434685,-0.136402 0.127406,-0.557327 -0.347492,-0.882685l-0.000216535 5.90551e-005c-0.0364449,-0.0249685 -0.045748,-0.0747677 -0.0207795,-0.111213 0.0240591,-0.0351181 0.0711732,-0.0450276 0.107177,-0.0233661 0.0582126,0.0275354 0.515614,0.232165 0.751835,-0.0212717 -0.102575,-0.137843 -0.465047,-0.529965 -1.13209,-0.288598l3.14961e-005 0.000228346c-0.0302205,0.0109331 -0.0627283,0.00253937 -0.0839882,-0.0188386 -0.0576811,-0.0464803 -0.570067,-0.430177 -1.27833,-0.000877953 0.0659488,0.0945472 0.251185,0.267205 0.696083,0.183303l-3.54331e-005 -0.00019685c0.0434173,-0.00818898 0.0852559,0.0203661 0.0934449,0.0637835 0.00700787,0.0371457 -0.0128858,0.0731299 -0.0459685,0.0878819zm-0.687004 0.689335c0.0393504,-0.388949 0.155606,-0.565472 0.290961,-0.66661 -0.377142,-0.0475551 -0.503854,-0.300933 -0.524488,-0.348488 -0.0183898,-0.0357677 -0.00733071,-0.0804134 0.0269646,-0.103165l0.0442244 0.0666654 -0.044063 -0.066563c0.761622,-0.505224 1.34969,-0.157772 1.49919,-0.050815 0.847925,-0.282252 1.26535,0.34037 1.30884,0.40989 0.0197441,0.0269606 0.0211299,0.0645709 0.000807087,0.0933858l-0.000125984 -8.66142e-005c-0.166567,0.236031 -0.431917,0.254756 -0.646362,0.219366 0.280654,0.361819 0.170114,0.746453 0.132024,0.850681 -0.0041378,0.0113307 -0.00936614,0.0264409 -0.0156339,0.0367362 -0.0129488,0.0212559 -0.0356024,0.0361811 -0.0623189,0.0382008l-9.84252e-005 -8.26772e-005c-0.708059,0.0535591 -0.952146,-0.406429 -1.0347,-0.68461 -0.334102,0.416929 -0.871665,0.301248 -0.91187,0.291906 -0.0397913,-0.00807874 -0.067752,-0.0451811 -0.0635827,-0.0864331l0.000244094 2.3622e-005z"
    />
    <path
      d="M3.37869 2.28957c0.0112165,0.0426299 0.0548701,0.0680945 0.0975,0.056878 0.0426299,-0.0112165 0.0680945,-0.0548701 0.056878,-0.0975 -0.000370079,-0.00140945 -0.138878,-0.484126 0.751181,-1.25531 0.0333071,-0.0288228 0.0369449,-0.0791929 0.00812205,-0.1125 -0.0288228,-0.0333071 -0.0791929,-0.0369449 -0.1125,-0.00812205 -0.966165,0.83713 -0.801626,1.41487 -0.801181,1.41656z"
    />
    <path
      d="M2.08567 3.23441c0,-0.0441811 -0.0358189,-0.08 -0.08,-0.08 -0.0441811,0 -0.08,0.0358189 -0.08,0.08l0 0.104276c0,0.0441811 0.0358189,0.08 0.08,0.08 0.0441811,0 0.08,-0.0358189 0.08,-0.08l0 -0.104276z"
    />
    <path
      d="M2.50276 3.59936c0,-0.0441811 -0.0358189,-0.08 -0.08,-0.08 -0.0441811,0 -0.08,0.0358189 -0.08,0.08l0 0.104276c0,0.0441811 0.0358189,0.08 0.08,0.08 0.0441811,0 0.08,-0.0358189 0.08,-0.08l0 -0.104276z"
    />
    <path
      d="M2.81558 3.23441c0,-0.0441811 -0.0358189,-0.08 -0.08,-0.08 -0.0441811,0 -0.08,0.0358189 -0.08,0.08l0 0.104276c0,0.0441811 0.0358189,0.08 0.08,0.08 0.0441811,0 0.08,-0.0358189 0.08,-0.08l0 -0.104276z"
    />
    <path
      d="M3.33692 3.33869c0,-0.0441811 -0.0358189,-0.08 -0.08,-0.08 -0.0441811,0 -0.08,0.0358189 -0.08,0.08l0 0.104272c0,0.0441811 0.0358189,0.08 0.08,0.08 0.0441811,0 0.08,-0.0358189 0.08,-0.08l0 -0.104272z"
    />
    <path
      d="M3.64974 3.80791c0,-0.0441811 -0.0358189,-0.08 -0.08,-0.08 -0.0441811,0 -0.08,0.0358189 -0.08,0.08l0 0.104272c0,0.0441811 0.0358189,0.08 0.08,0.08 0.0441811,0 0.08,-0.0358189 0.08,-0.08l0 -0.104272z"
    />
    <path
      d="M4.17109 3.59936c0,-0.0441811 -0.0358189,-0.08 -0.08,-0.08 -0.0441811,0 -0.08,0.0358189 -0.08,0.08l0 0.104276c0,0.0441811 0.0358189,0.08 0.08,0.08 0.0441811,0 0.08,-0.0358189 0.08,-0.08l0 -0.104276z"
    />
    <path
      d="M4.58818 3.39082c0,-0.0441811 -0.0358189,-0.08 -0.08,-0.08 -0.0441811,0 -0.08,0.0358189 -0.08,0.08l0 0.104276c0,0.0441811 0.0358189,0.08 0.08,0.08 0.0441811,0 0.08,-0.0358189 0.08,-0.08l0 -0.104276z"
    />
    <path
      d="M4.90099 3.02587c0,-0.0441811 -0.0358189,-0.08 -0.08,-0.08 -0.0441811,0 -0.08,0.0358189 -0.08,0.08l0 0.104272c0,0.0441811 0.0358189,0.08 0.08,0.08 0.0441811,0 0.08,-0.0358189 0.08,-0.08l0 -0.104272z"
    />
    <path
      d="M4.79672 3.96431c0,-0.0441811 -0.0358189,-0.08 -0.08,-0.08 -0.0441811,0 -0.08,0.0358189 -0.08,0.08l0 0.104276c0,0.0441811 0.0358189,0.08 0.08,0.08 0.0441811,0 0.08,-0.0358189 0.08,-0.08l0 -0.104276z"
    />
    <path
      d="M4.48392 4.48567c0,-0.0441811 -0.0358189,-0.08 -0.08,-0.08 -0.0441811,0 -0.08,0.0358189 -0.08,0.08l0 0.104272c0,0.0441811 0.0358189,0.08 0.08,0.08 0.0441811,0 0.08,-0.0358189 0.08,-0.08l0 -0.104272z"
    />
    <path
      d="M4.3787 4.02065c0,-0.0441811 -0.0358189,-0.08 -0.08,-0.08 -0.0441811,0 -0.08,0.0358189 -0.08,0.08l0 0.104276c0,0.0441811 0.0358189,0.08 0.08,0.08 0.0441811,0 0.08,-0.0358189 0.08,-0.08l0 -0.104276z"
    />
    <path
      d="M4.17109 5.1113c0,-0.0441811 -0.0358189,-0.08 -0.08,-0.08 -0.0441811,0 -0.08,0.0358189 -0.08,0.08l0 0.104276c0,0.0441811 0.0358189,0.08 0.08,0.08 0.0441811,0 0.08,-0.0358189 0.08,-0.08l0 -0.104276z"
    />
    <path
      d="M3.96256 4.53781c0,-0.0441811 -0.0358189,-0.08 -0.08,-0.08 -0.0441811,0 -0.08,0.0358189 -0.08,0.08l0 0.104272c0,0.0441811 0.0358189,0.08 0.08,0.08 0.0441811,0 0.08,-0.0358189 0.08,-0.08l0 -0.104272z"
    />
    <path
      d="M3.75401 5.37197c0,-0.0441811 -0.0358189,-0.08 -0.08,-0.08 -0.0441811,0 -0.08,0.0358189 -0.08,0.08l0 0.104276c0,0.0441811 0.0358189,0.08 0.08,0.08 0.0441811,0 0.08,-0.0358189 0.08,-0.08l0 -0.104276z"
    />
    <path
      d="M3.02412 5.42411c0,-0.0441811 -0.0358189,-0.08 -0.08,-0.08 -0.0441811,0 -0.08,0.0358189 -0.08,0.08l0 0.104272c0,0.0441811 0.0358189,0.08 0.08,0.08 0.0441811,0 0.08,-0.0358189 0.08,-0.08l0 -0.104272z"
    />
    <path
      d="M3.33693 5.16343c0,-0.0441811 -0.0358189,-0.08 -0.08,-0.08 -0.0441811,0 -0.08,0.0358189 -0.08,0.08l0 0.104276c0,0.0441811 0.0358189,0.08 0.08,0.08 0.0441811,0 0.08,-0.0358189 0.08,-0.08l0 -0.104276z"
    />
    <path
      d="M3.54546 4.69421c0,-0.0441811 -0.0358189,-0.08 -0.08,-0.08 -0.0441811,0 -0.08,0.0358189 -0.08,0.08l0 0.104276c0,0.0441811 0.0358189,0.08 0.08,0.08 0.0441811,0 0.08,-0.0358189 0.08,-0.08l0 -0.104276z"
    />
    <path
      d="M3.33692 4.27713c0,-0.0441811 -0.0358189,-0.08 -0.08,-0.08 -0.0441811,0 -0.08,0.0358189 -0.08,0.08l0 0.104272c0,0.0441811 0.0358189,0.08 0.08,0.08 0.0441811,0 0.08,-0.0358189 0.08,-0.08l0 -0.104272z"
    />
    <path
      d="M3.04613 3.86004c0,-0.0441811 -0.0358189,-0.08 -0.08,-0.08 -0.0441811,0 -0.08,0.0358189 -0.08,0.08l0 0.104276c0,0.0441811 0.0358189,0.08 0.08,0.08 0.0441811,0 0.08,-0.0358189 0.08,-0.08l0 -0.104276z"
    />
    <path
      d="M2.60703 4.01645c0,-0.0441811 -0.0358189,-0.08 -0.08,-0.08 -0.0441811,0 -0.08,0.0358189 -0.08,0.08l0 0.104272c0,0.0441811 0.0358189,0.08 0.08,0.08 0.0441811,0 0.08,-0.0358189 0.08,-0.08l0 -0.104272z"
    />
    <path
      d="M3.02411 4.64207c0,-0.0441811 -0.0358189,-0.08 -0.08,-0.08 -0.0441811,0 -0.08,0.0358189 -0.08,0.08l0 0.104276c0,0.0441811 0.0358189,0.08 0.08,0.08 0.0441811,0 0.08,-0.0358189 0.08,-0.08l0 -0.104276z"
    />
    <path
      d="M2.60702 4.79848c0,-0.0441811 -0.0358189,-0.08 -0.08,-0.08 -0.0441811,0 -0.08,0.0358189 -0.08,0.08l0 0.104272c0,0.0441811 0.0358189,0.08 0.08,0.08 0.0441811,0 0.08,-0.0358189 0.08,-0.08l0 -0.104272z"
    />
    <path
      d="M2.24674 4.29436c0,-0.0441811 -0.0358189,-0.08 -0.08,-0.08 -0.0441811,0 -0.08,0.0358189 -0.08,0.08l0 0.104276c0,0.0441811 0.0358189,0.08 0.08,0.08 0.0441811,0 0.08,-0.0358189 0.08,-0.08l0 -0.104276z"
    />
    <path
      d="M2.08567 3.80791c0,-0.0441811 -0.0358189,-0.08 -0.08,-0.08 -0.0441811,0 -0.08,0.0358189 -0.08,0.08l0 0.104272c0,0.0441811 0.0358189,0.08 0.08,0.08 0.0441811,0 0.08,-0.0358189 0.08,-0.08l0 -0.104272z"
    />
  </g>

  <path
    fill="#AED581"
    d="M2.9253 2.22681c-0.0383976,0.0209094 -0.0769291,0.0374055 -0.116366,0.0542874 -0.162047,0.0693622 -0.342028,0.146484 -0.402988,0.577114 0.162642,0.0198268 0.568571,0.0227756 0.774728,-0.39222l-8.26772e-005 -0.000279528c0.0196535,-0.0395669 0.0676693,-0.0557087 0.107236,-0.0360551 0.0268504,0.0133386 0.0429055,0.0397362 0.044315,0.0676929 0.00435827,0.048815 0.0815354,0.769059 0.853484,0.741252 0.0434685,-0.136402 0.127406,-0.557327 -0.347492,-0.882685l-0.000216535 5.90551e-005c-0.0364449,-0.0249685 -0.045748,-0.0747677 -0.0207795,-0.111213 0.0240591,-0.0351181 0.0711732,-0.0450276 0.107177,-0.0233661 0.0582126,0.0275354 0.515614,0.232165 0.751835,-0.0212717 -0.102575,-0.137843 -0.465047,-0.529965 -1.13209,-0.288598l3.14961e-005 0.000228346c-0.0302205,0.0109331 -0.0627283,0.00253937 -0.0839882,-0.0188386 -0.0576811,-0.0464803 -0.570067,-0.430177 -1.27833,-0.000877953 0.0659488,0.0945472 0.251185,0.267205 0.696083,0.183303l-3.54331e-005 -0.00019685c0.0434173,-0.00818898 0.0852559,0.0203661 0.0934449,0.0637835 0.00700787,0.0371457 -0.0128858,0.0731299 -0.0459685,0.0878819z"
  />
</svg>
